<?xml version="1.0"?>
<svg version="1.1" id="topsvg"
xmlns="http://www.w3.org/2000/svg" xmlns:xlink="http://www.w3.org/1999/xlink"
xmlns:cml="http://www.xml-cml.org/schema" x="0" y="0" width="200px" height="200px" viewBox="0 0 100 100">
<title> - Open Babel Depiction</title>
<g transform="translate(0,0)">
<svg width="100" height="100" x="0" y="0" viewBox="0 0 533.201 438.423"
font-family="sans-serif" stroke="rgb(76,76,76)" stroke-width="4"  stroke-linecap="round">
<line x1="493.2" y1="40.0" x2="463.5" y2="66.8" opacity="1.0" stroke="rgb(76,76,76)"  stroke-width="4.0"/>
<line x1="463.5" y1="66.8" x2="433.7" y2="93.5" opacity="1.0" stroke="rgb(76,76,76)"  stroke-width="4.0"/>
<line x1="466.3" y1="69.9" x2="436.6" y2="96.7" opacity="1.0" stroke="rgb(76,76,76)"  stroke-width="4.0"/>
<line x1="460.7" y1="63.6" x2="430.9" y2="90.4" opacity="1.0" stroke="rgb(76,76,76)"  stroke-width="4.0"/>
<line x1="433.7" y1="93.5" x2="404.0" y2="120.3" opacity="1.0" stroke="rgb(76,76,76)"  stroke-width="4.0"/>
<line x1="403.1" y1="123.1" x2="377.4" y2="114.8" opacity="1.0" stroke="rgb(76,76,76)"  stroke-width="4.0"/>
<line x1="405.0" y1="117.4" x2="379.3" y2="109.1" opacity="1.0" stroke="rgb(76,76,76)"  stroke-width="4.0"/>
<line x1="404.0" y1="120.3" x2="409.6" y2="146.7" opacity="1.0" stroke="rgb(76,76,76)"  stroke-width="4.0"/>
<line x1="385.6" y1="189.1" x2="345.8" y2="185.0" opacity="1.0" stroke="rgb(76,76,76)"  stroke-width="4.0"/>
<line x1="259.9" y1="128.9" x2="233.5" y2="134.5" opacity="1.0" stroke="rgb(76,76,76)"  stroke-width="4.0"/>
<line x1="282.5" y1="198.4" x2="247.8" y2="218.4" opacity="1.0" stroke="rgb(76,76,76)"  stroke-width="4.0"/>
<line x1="178.6" y1="258.4" x2="143.9" y2="278.4" opacity="1.0" stroke="rgb(76,76,76)"  stroke-width="4.0"/>
<line x1="142.4" y1="281.0" x2="119.0" y2="267.5" opacity="1.0" stroke="rgb(76,76,76)"  stroke-width="4.0"/>
<line x1="145.4" y1="275.8" x2="122.0" y2="262.3" opacity="1.0" stroke="rgb(76,76,76)"  stroke-width="4.0"/>
<line x1="143.9" y1="278.4" x2="143.9" y2="305.4" opacity="1.0" stroke="rgb(76,76,76)"  stroke-width="4.0"/>
<line x1="132.7" y1="324.9" x2="109.3" y2="338.4" opacity="1.0" stroke="rgb(76,76,76)"  stroke-width="4.0"/>
<line x1="282.5" y1="198.4" x2="286.7" y2="158.6" opacity="1.0" stroke="rgb(76,76,76)"  stroke-width="4.0"/>
<line x1="290.3" y1="193.2" x2="293.2" y2="165.4" opacity="1.0" stroke="rgb(76,76,76)"  stroke-width="4.0"/>
<line x1="286.7" y1="158.6" x2="313.1" y2="153.0" opacity="1.0" stroke="rgb(76,76,76)"  stroke-width="4.0"/>
<line x1="332.3" y1="161.6" x2="345.8" y2="185.0" opacity="1.0" stroke="rgb(76,76,76)"  stroke-width="4.0"/>
<line x1="345.8" y1="185.0" x2="327.9" y2="204.9" opacity="1.0" stroke="rgb(76,76,76)"  stroke-width="4.0"/>
<line x1="336.4" y1="184.6" x2="323.8" y2="198.6" opacity="1.0" stroke="rgb(76,76,76)"  stroke-width="4.0"/>
<line x1="307.2" y1="209.4" x2="282.5" y2="198.4" opacity="1.0" stroke="rgb(76,76,76)"  stroke-width="4.0"/>
<line x1="285.0" y1="88.2" x2="311.4" y2="82.6" opacity="1.0" stroke="rgb(76,76,76)"  stroke-width="4.0"/>
<line x1="311.4" y1="82.6" x2="338.2" y2="112.3" opacity="1.0" stroke="rgb(76,76,76)"  stroke-width="4.0"/>
<line x1="310.1" y1="91.8" x2="328.8" y2="112.6" opacity="1.0" stroke="rgb(76,76,76)"  stroke-width="4.0"/>
<line x1="338.2" y1="112.3" x2="329.8" y2="138.0" opacity="1.0" stroke="rgb(76,76,76)"  stroke-width="4.0"/>
<line x1="286.7" y1="158.6" x2="259.9" y2="128.9" opacity="1.0" stroke="rgb(76,76,76)"  stroke-width="4.0"/>
<line x1="259.9" y1="128.9" x2="268.2" y2="103.4" opacity="1.0" stroke="rgb(76,76,76)"  stroke-width="4.0"/>
<line x1="268.6" y1="125.4" x2="274.4" y2="107.6" opacity="1.0" stroke="rgb(76,76,76)"  stroke-width="4.0"/>
<line x1="213.2" y1="278.4" x2="178.6" y2="258.4" opacity="1.0" stroke="rgb(76,76,76)"  stroke-width="4.0"/>
<line x1="211.6" y1="269.2" x2="187.4" y2="255.2" opacity="1.0" stroke="rgb(76,76,76)"  stroke-width="4.0"/>
<line x1="178.6" y1="258.4" x2="178.6" y2="218.4" opacity="1.0" stroke="rgb(76,76,76)"  stroke-width="4.0"/>
<line x1="178.6" y1="218.4" x2="213.2" y2="198.4" opacity="1.0" stroke="rgb(76,76,76)"  stroke-width="4.0"/>
<line x1="187.4" y1="221.7" x2="211.6" y2="207.7" opacity="1.0" stroke="rgb(76,76,76)"  stroke-width="4.0"/>
<line x1="213.2" y1="198.4" x2="247.8" y2="218.4" opacity="1.0" stroke="rgb(76,76,76)"  stroke-width="4.0"/>
<line x1="247.8" y1="218.4" x2="247.8" y2="258.4" opacity="1.0" stroke="rgb(76,76,76)"  stroke-width="4.0"/>
<line x1="240.6" y1="224.4" x2="240.6" y2="252.4" opacity="1.0" stroke="rgb(76,76,76)"  stroke-width="4.0"/>
<line x1="247.8" y1="258.4" x2="213.2" y2="278.4" opacity="1.0" stroke="rgb(76,76,76)"  stroke-width="4.0"/>
<line x1="74.6" y1="398.4" x2="40.0" y2="378.4" opacity="1.0" stroke="rgb(76,76,76)"  stroke-width="4.0"/>
<line x1="73.0" y1="389.2" x2="48.8" y2="375.2" opacity="1.0" stroke="rgb(76,76,76)"  stroke-width="4.0"/>
<line x1="40.0" y1="378.4" x2="40.0" y2="338.4" opacity="1.0" stroke="rgb(76,76,76)"  stroke-width="4.0"/>
<line x1="40.0" y1="338.4" x2="63.2" y2="325.0" opacity="1.0" stroke="rgb(76,76,76)"  stroke-width="4.0"/>
<line x1="48.8" y1="341.7" x2="65.1" y2="332.3" opacity="1.0" stroke="rgb(76,76,76)"  stroke-width="4.0"/>
<line x1="85.9" y1="324.9" x2="109.3" y2="338.4" opacity="1.0" stroke="rgb(76,76,76)"  stroke-width="4.0"/>
<line x1="109.3" y1="338.4" x2="109.3" y2="378.4" opacity="1.0" stroke="rgb(76,76,76)"  stroke-width="4.0"/>
<line x1="102.1" y1="344.4" x2="102.1" y2="372.4" opacity="1.0" stroke="rgb(76,76,76)"  stroke-width="4.0"/>
<line x1="109.3" y1="378.4" x2="74.6" y2="398.4" opacity="1.0" stroke="rgb(76,76,76)"  stroke-width="4.0"/>
<line x1="444.7" y1="215.5" x2="405.6" y2="223.8" opacity="1.0" stroke="rgb(76,76,76)"  stroke-width="4.0"/>
<line x1="405.6" y1="223.8" x2="385.6" y2="189.1" opacity="1.0" stroke="rgb(76,76,76)"  stroke-width="4.0"/>
<line x1="385.6" y1="189.1" x2="403.6" y2="169.1" opacity="1.0" stroke="rgb(76,76,76)"  stroke-width="4.0"/>
<line x1="424.2" y1="164.7" x2="448.9" y2="175.7" opacity="1.0" stroke="rgb(76,76,76)"  stroke-width="4.0"/>
<line x1="448.9" y1="175.7" x2="444.7" y2="215.5" opacity="1.0" stroke="rgb(76,76,76)"  stroke-width="4.0"/>
<text x="194.777123" y="145.232357" fill="rgb(12,12,255)" stroke-width="0" font-weight="bold" font-size="16" >H</text>
<text x="206.777123" y="148.912357" fill="rgb(12,12,255)" stroke-width="0" font-weight="bold" font-size="13" >2</text>
<text x="213.277123" y="145.232357" fill="rgb(12,12,255)" stroke-width="0" font-weight="bold" font-size="16" >N</text>
<text x="266.263707" y="98.873629" fill="rgb(12,12,255)" stroke-width="0" font-weight="bold" font-size="16" >N</text>
<text x="103.282032" y="266.422559" fill="rgb(255,12,12)" stroke-width="0" font-weight="bold" font-size="16" >O</text>
<text x="137.923048" y="326.422559" fill="rgb(12,12,255)" stroke-width="0" font-weight="bold" font-size="16" >NH</text>
<text x="68.641016" y="326.422559" fill="rgb(12,12,255)" stroke-width="0" font-weight="bold" font-size="16" >N</text>
<text x="359.981527" y="115.934993" fill="rgb(255,12,12)" stroke-width="0" font-weight="bold" font-size="16" >O</text>
<text x="406.340256" y="167.421577" fill="rgb(12,12,255)" stroke-width="0" font-weight="bold" font-size="16" >N</text>
<text x="313.028931" y="222.692024" fill="rgb(12,12,255)" stroke-width="0" font-weight="bold" font-size="16" >N</text>
<text x="319.794156" y="158.325215" fill="rgb(12,12,255)" stroke-width="0" font-weight="bold" font-size="16" >N</text>
</svg>
</g>
</svg>
